<mxfile host="Electron" modified="2023-05-29T10:33:56.966Z" agent="Mozilla/5.0 (X11; Linux x86_64) AppleWebKit/537.36 (KHTML, like Gecko) draw.io/21.2.8 Chrome/106.0.5249.199 Electron/21.4.4 Safari/537.36" etag="HXiWXEqrXOTZypV8yROv" version="21.2.8" type="device">
  <diagram name="Page-1" id="C5HD7RrzjU2cgvFhT7br">
    <mxGraphModel dx="1804" dy="583" grid="1" gridSize="10" guides="1" tooltips="1" connect="1" arrows="1" fold="1" page="1" pageScale="1" pageWidth="850" pageHeight="1100" math="0" shadow="0">
      <root>
        <mxCell id="0" />
        <mxCell id="1" parent="0" />
        <mxCell id="xfgqFInzrt2F2nNXEhMC-96" style="edgeStyle=orthogonalEdgeStyle;rounded=0;orthogonalLoop=1;jettySize=auto;html=1;exitX=0;exitY=0.5;exitDx=0;exitDy=0;entryX=0;entryY=0.5;entryDx=0;entryDy=0;" parent="1" source="xfgqFInzrt2F2nNXEhMC-44" target="6mnyKnMKoBdTDlpZ-iiz-33" edge="1">
          <mxGeometry relative="1" as="geometry">
            <Array as="points">
              <mxPoint x="30" y="794" />
              <mxPoint y="794" />
              <mxPoint y="290" />
            </Array>
          </mxGeometry>
        </mxCell>
        <mxCell id="xfgqFInzrt2F2nNXEhMC-44" value="" style="rounded=1;whiteSpace=wrap;html=1;container=0;arcSize=5;" parent="1" vertex="1">
          <mxGeometry x="30" y="530" width="640" height="600" as="geometry" />
        </mxCell>
        <mxCell id="6mnyKnMKoBdTDlpZ-iiz-1" value="" style="ellipse;html=1;shape=startState;fillColor=#000000;strokeColor=#ff0000;" parent="1" vertex="1">
          <mxGeometry x="630" y="275" width="30" height="30" as="geometry" />
        </mxCell>
        <mxCell id="6mnyKnMKoBdTDlpZ-iiz-2" value="" style="edgeStyle=orthogonalEdgeStyle;html=1;verticalAlign=bottom;endArrow=open;endSize=8;strokeColor=#ff0000;rounded=0;entryX=1;entryY=0.5;entryDx=0;entryDy=0;" parent="1" source="6mnyKnMKoBdTDlpZ-iiz-1" target="6mnyKnMKoBdTDlpZ-iiz-4" edge="1">
          <mxGeometry relative="1" as="geometry">
            <mxPoint x="398" y="210" as="targetPoint" />
          </mxGeometry>
        </mxCell>
        <mxCell id="6mnyKnMKoBdTDlpZ-iiz-34" style="edgeStyle=orthogonalEdgeStyle;rounded=0;orthogonalLoop=1;jettySize=auto;html=1;exitX=0;exitY=0.5;exitDx=0;exitDy=0;entryX=1;entryY=0.5;entryDx=0;entryDy=0;" parent="1" source="6mnyKnMKoBdTDlpZ-iiz-4" target="6mnyKnMKoBdTDlpZ-iiz-33" edge="1">
          <mxGeometry relative="1" as="geometry" />
        </mxCell>
        <mxCell id="6mnyKnMKoBdTDlpZ-iiz-4" value="&lt;div&gt;Anwendung starten&lt;/div&gt;" style="rounded=1;whiteSpace=wrap;html=1;" parent="1" vertex="1">
          <mxGeometry x="479" y="270" width="91" height="40" as="geometry" />
        </mxCell>
        <mxCell id="6mnyKnMKoBdTDlpZ-iiz-15" style="edgeStyle=orthogonalEdgeStyle;rounded=0;orthogonalLoop=1;jettySize=auto;html=1;exitX=0;exitY=0.5;exitDx=0;exitDy=0;entryX=0.5;entryY=0;entryDx=0;entryDy=0;" parent="1" source="6mnyKnMKoBdTDlpZ-iiz-7" target="6mnyKnMKoBdTDlpZ-iiz-21" edge="1">
          <mxGeometry relative="1" as="geometry">
            <mxPoint x="210" y="420" as="targetPoint" />
          </mxGeometry>
        </mxCell>
        <mxCell id="6mnyKnMKoBdTDlpZ-iiz-36" value="[choice == &quot;Spiel starten&quot;]" style="edgeLabel;html=1;align=center;verticalAlign=middle;resizable=0;points=[];" parent="6mnyKnMKoBdTDlpZ-iiz-15" vertex="1" connectable="0">
          <mxGeometry x="-0.3949" relative="1" as="geometry">
            <mxPoint x="-26" y="-10" as="offset" />
          </mxGeometry>
        </mxCell>
        <mxCell id="6mnyKnMKoBdTDlpZ-iiz-17" style="edgeStyle=orthogonalEdgeStyle;rounded=0;orthogonalLoop=1;jettySize=auto;html=1;exitX=1;exitY=0.5;exitDx=0;exitDy=0;entryX=0;entryY=0.5;entryDx=0;entryDy=0;" parent="1" source="6mnyKnMKoBdTDlpZ-iiz-7" target="6mnyKnMKoBdTDlpZ-iiz-12" edge="1">
          <mxGeometry relative="1" as="geometry">
            <mxPoint x="613" y="520" as="targetPoint" />
          </mxGeometry>
        </mxCell>
        <mxCell id="6mnyKnMKoBdTDlpZ-iiz-37" value="[choice == Spiel beenden]" style="edgeLabel;html=1;align=center;verticalAlign=middle;resizable=0;points=[];" parent="6mnyKnMKoBdTDlpZ-iiz-17" vertex="1" connectable="0">
          <mxGeometry x="-0.5349" y="1" relative="1" as="geometry">
            <mxPoint x="45" y="-9" as="offset" />
          </mxGeometry>
        </mxCell>
        <mxCell id="6mnyKnMKoBdTDlpZ-iiz-7" value="" style="rhombus;whiteSpace=wrap;html=1;" parent="1" vertex="1">
          <mxGeometry x="384" y="340" width="42" height="30" as="geometry" />
        </mxCell>
        <mxCell id="6mnyKnMKoBdTDlpZ-iiz-12" value="" style="ellipse;html=1;shape=endState;fillColor=#000000;strokeColor=#ff0000;" parent="1" vertex="1">
          <mxGeometry x="630" y="340" width="30" height="30" as="geometry" />
        </mxCell>
        <mxCell id="6mnyKnMKoBdTDlpZ-iiz-24" style="edgeStyle=orthogonalEdgeStyle;rounded=0;orthogonalLoop=1;jettySize=auto;html=1;exitX=0.5;exitY=1;exitDx=0;exitDy=0;entryX=0.5;entryY=0;entryDx=0;entryDy=0;" parent="1" source="6mnyKnMKoBdTDlpZ-iiz-21" target="6mnyKnMKoBdTDlpZ-iiz-23" edge="1">
          <mxGeometry relative="1" as="geometry" />
        </mxCell>
        <mxCell id="6mnyKnMKoBdTDlpZ-iiz-21" value="&lt;div&gt;Rolle wählen&lt;/div&gt;" style="rounded=1;whiteSpace=wrap;html=1;" parent="1" vertex="1">
          <mxGeometry x="250" y="400" width="91" height="40" as="geometry" />
        </mxCell>
        <mxCell id="6mnyKnMKoBdTDlpZ-iiz-29" style="edgeStyle=orthogonalEdgeStyle;rounded=0;orthogonalLoop=1;jettySize=auto;html=1;exitX=0;exitY=0.5;exitDx=0;exitDy=0;entryX=0;entryY=0;entryDx=50;entryDy=0;entryPerimeter=0;" parent="1" source="6mnyKnMKoBdTDlpZ-iiz-23" target="xfgqFInzrt2F2nNXEhMC-38" edge="1">
          <mxGeometry relative="1" as="geometry">
            <mxPoint x="165" y="540" as="targetPoint" />
          </mxGeometry>
        </mxCell>
        <mxCell id="6mnyKnMKoBdTDlpZ-iiz-31" value="[role == codemaker]" style="edgeLabel;html=1;align=center;verticalAlign=middle;resizable=0;points=[];" parent="6mnyKnMKoBdTDlpZ-iiz-29" vertex="1" connectable="0">
          <mxGeometry x="-0.0909" y="3" relative="1" as="geometry">
            <mxPoint x="2" y="-33" as="offset" />
          </mxGeometry>
        </mxCell>
        <mxCell id="xfgqFInzrt2F2nNXEhMC-80" value="[role == codebreaker]" style="edgeStyle=orthogonalEdgeStyle;rounded=0;orthogonalLoop=1;jettySize=auto;html=1;exitX=1;exitY=0.5;exitDx=0;exitDy=0;entryX=0.1;entryY=0.738;entryDx=0;entryDy=0;entryPerimeter=0;" parent="1" source="6mnyKnMKoBdTDlpZ-iiz-23" target="4zfpj5_55RrsMOGDuv52-13" edge="1">
          <mxGeometry relative="1" as="geometry">
            <mxPoint x="455" y="560" as="targetPoint" />
            <Array as="points">
              <mxPoint x="440" y="495" />
            </Array>
          </mxGeometry>
        </mxCell>
        <mxCell id="6mnyKnMKoBdTDlpZ-iiz-23" value="" style="rhombus;whiteSpace=wrap;html=1;" parent="1" vertex="1">
          <mxGeometry x="275.5" y="480" width="40" height="30" as="geometry" />
        </mxCell>
        <mxCell id="6mnyKnMKoBdTDlpZ-iiz-35" style="edgeStyle=orthogonalEdgeStyle;rounded=0;orthogonalLoop=1;jettySize=auto;html=1;exitX=0.5;exitY=1;exitDx=0;exitDy=0;" parent="1" source="6mnyKnMKoBdTDlpZ-iiz-33" target="6mnyKnMKoBdTDlpZ-iiz-7" edge="1">
          <mxGeometry relative="1" as="geometry" />
        </mxCell>
        <mxCell id="6mnyKnMKoBdTDlpZ-iiz-33" value="Menüoption auswählen" style="rounded=1;whiteSpace=wrap;html=1;" parent="1" vertex="1">
          <mxGeometry x="359" y="270" width="92" height="40" as="geometry" />
        </mxCell>
        <mxCell id="xfgqFInzrt2F2nNXEhMC-84" value="[true" style="edgeStyle=orthogonalEdgeStyle;rounded=0;orthogonalLoop=1;jettySize=auto;html=1;exitX=0;exitY=0.5;exitDx=0;exitDy=0;entryX=1;entryY=0.5;entryDx=0;entryDy=0;" parent="1" source="6mnyKnMKoBdTDlpZ-iiz-58" target="6mnyKnMKoBdTDlpZ-iiz-45" edge="1">
          <mxGeometry relative="1" as="geometry" />
        </mxCell>
        <mxCell id="4zfpj5_55RrsMOGDuv52-16" value="[false]" style="edgeStyle=orthogonalEdgeStyle;rounded=0;orthogonalLoop=1;jettySize=auto;html=1;exitX=0.5;exitY=1;exitDx=0;exitDy=0;entryX=-0.366;entryY=0.263;entryDx=0;entryDy=0;entryPerimeter=0;" edge="1" parent="1" source="6mnyKnMKoBdTDlpZ-iiz-58" target="4zfpj5_55RrsMOGDuv52-11">
          <mxGeometry x="-0.4664" y="5" relative="1" as="geometry">
            <mxPoint as="offset" />
          </mxGeometry>
        </mxCell>
        <mxCell id="6mnyKnMKoBdTDlpZ-iiz-58" value="" style="rhombus;whiteSpace=wrap;html=1;container=0;" parent="1" vertex="1">
          <mxGeometry x="435.5" y="789.62" width="39" height="30" as="geometry" />
        </mxCell>
        <mxCell id="xfgqFInzrt2F2nNXEhMC-19" value="[false]" style="edgeStyle=orthogonalEdgeStyle;rounded=0;orthogonalLoop=1;jettySize=auto;html=1;exitX=0;exitY=0.5;exitDx=0;exitDy=0;entryX=1;entryY=0.5;entryDx=0;entryDy=0;" parent="1" source="xfgqFInzrt2F2nNXEhMC-6" target="6mnyKnMKoBdTDlpZ-iiz-44" edge="1">
          <mxGeometry relative="1" as="geometry" />
        </mxCell>
        <mxCell id="-JMtcEVkYMEbGsDYnE0R-1" value="[true]" style="edgeStyle=orthogonalEdgeStyle;rounded=0;orthogonalLoop=1;jettySize=auto;html=1;exitX=0.5;exitY=1;exitDx=0;exitDy=0;entryX=0;entryY=0;entryDx=65;entryDy=0;entryPerimeter=0;" parent="1" source="xfgqFInzrt2F2nNXEhMC-6" target="xfgqFInzrt2F2nNXEhMC-39" edge="1">
          <mxGeometry relative="1" as="geometry" />
        </mxCell>
        <mxCell id="xfgqFInzrt2F2nNXEhMC-6" value="" style="rhombus;whiteSpace=wrap;html=1;container=0;" parent="1" vertex="1">
          <mxGeometry x="435" y="652.73" width="40" height="30" as="geometry" />
        </mxCell>
        <mxCell id="xfgqFInzrt2F2nNXEhMC-10" value="" style="endArrow=none;dashed=1;html=1;dashPattern=1 3;strokeWidth=2;rounded=0;entryX=0;entryY=0.5;entryDx=0;entryDy=0;entryPerimeter=0;" parent="1" target="xfgqFInzrt2F2nNXEhMC-9" edge="1">
          <mxGeometry width="50" height="50" relative="1" as="geometry">
            <mxPoint x="475" y="799.62" as="sourcePoint" />
            <mxPoint x="435" y="729.62" as="targetPoint" />
          </mxGeometry>
        </mxCell>
        <mxCell id="xfgqFInzrt2F2nNXEhMC-68" value="[true]&lt;br&gt;" style="edgeStyle=orthogonalEdgeStyle;rounded=0;orthogonalLoop=1;jettySize=auto;html=1;exitX=0;exitY=0.5;exitDx=0;exitDy=0;entryX=1;entryY=0.5;entryDx=0;entryDy=0;" parent="1" source="xfgqFInzrt2F2nNXEhMC-55" target="xfgqFInzrt2F2nNXEhMC-67" edge="1">
          <mxGeometry relative="1" as="geometry" />
        </mxCell>
        <mxCell id="xfgqFInzrt2F2nNXEhMC-73" style="edgeStyle=orthogonalEdgeStyle;rounded=0;orthogonalLoop=1;jettySize=auto;html=1;exitX=0.5;exitY=1;exitDx=0;exitDy=0;entryX=0.5;entryY=0;entryDx=0;entryDy=0;" parent="1" source="xfgqFInzrt2F2nNXEhMC-55" target="xfgqFInzrt2F2nNXEhMC-72" edge="1">
          <mxGeometry relative="1" as="geometry" />
        </mxCell>
        <mxCell id="xfgqFInzrt2F2nNXEhMC-74" value="[false]" style="edgeLabel;html=1;align=center;verticalAlign=middle;resizable=0;points=[];container=0;" parent="xfgqFInzrt2F2nNXEhMC-73" vertex="1" connectable="0">
          <mxGeometry x="0.2174" y="1" relative="1" as="geometry">
            <mxPoint as="offset" />
          </mxGeometry>
        </mxCell>
        <mxCell id="xfgqFInzrt2F2nNXEhMC-55" value="" style="rhombus;whiteSpace=wrap;html=1;container=0;" parent="1" vertex="1">
          <mxGeometry x="435" y="928.83" width="40" height="30" as="geometry" />
        </mxCell>
        <mxCell id="xfgqFInzrt2F2nNXEhMC-59" value="Farbe im Code enthalten?" style="shape=note2;boundedLbl=1;whiteSpace=wrap;html=1;size=25;verticalAlign=top;align=center;container=0;" parent="1" vertex="1">
          <mxGeometry x="515" y="923.83" width="100" height="60" as="geometry" />
        </mxCell>
        <mxCell id="xfgqFInzrt2F2nNXEhMC-60" value="" style="endArrow=none;dashed=1;html=1;dashPattern=1 3;strokeWidth=2;rounded=0;exitX=1;exitY=0.5;exitDx=0;exitDy=0;entryX=0;entryY=0.5;entryDx=0;entryDy=0;entryPerimeter=0;" parent="1" source="xfgqFInzrt2F2nNXEhMC-55" target="xfgqFInzrt2F2nNXEhMC-59" edge="1">
          <mxGeometry width="50" height="50" relative="1" as="geometry">
            <mxPoint x="485" y="898.83" as="sourcePoint" />
            <mxPoint x="525" y="898.83" as="targetPoint" />
          </mxGeometry>
        </mxCell>
        <mxCell id="4zfpj5_55RrsMOGDuv52-8" style="edgeStyle=orthogonalEdgeStyle;rounded=0;orthogonalLoop=1;jettySize=auto;html=1;exitX=0;exitY=0.5;exitDx=0;exitDy=0;entryX=0.682;entryY=0.472;entryDx=0;entryDy=0;entryPerimeter=0;" edge="1" parent="1" source="xfgqFInzrt2F2nNXEhMC-61" target="4zfpj5_55RrsMOGDuv52-1">
          <mxGeometry relative="1" as="geometry" />
        </mxCell>
        <mxCell id="xfgqFInzrt2F2nNXEhMC-61" value="Setze weißes Stäbchen" style="rounded=1;whiteSpace=wrap;html=1;container=0;" parent="1" vertex="1">
          <mxGeometry x="110.5" y="921.33" width="84.5" height="45" as="geometry" />
        </mxCell>
        <mxCell id="xfgqFInzrt2F2nNXEhMC-77" style="edgeStyle=orthogonalEdgeStyle;rounded=0;orthogonalLoop=1;jettySize=auto;html=1;exitX=0;exitY=0.5;exitDx=0;exitDy=0;entryX=0.482;entryY=0.626;entryDx=0;entryDy=0;entryPerimeter=0;" parent="1" source="xfgqFInzrt2F2nNXEhMC-63" target="4zfpj5_55RrsMOGDuv52-1" edge="1">
          <mxGeometry relative="1" as="geometry" />
        </mxCell>
        <mxCell id="xfgqFInzrt2F2nNXEhMC-63" value="Setze schwarzes Stäbchen" style="rounded=1;whiteSpace=wrap;html=1;container=0;" parent="1" vertex="1">
          <mxGeometry x="110" y="986.33" width="84.5" height="45" as="geometry" />
        </mxCell>
        <mxCell id="xfgqFInzrt2F2nNXEhMC-65" value="Farbe im Code an richtiger Stelle?" style="shape=note2;boundedLbl=1;whiteSpace=wrap;html=1;size=25;verticalAlign=top;align=center;container=0;" parent="1" vertex="1">
          <mxGeometry x="515" y="1003.83" width="100" height="60" as="geometry" />
        </mxCell>
        <mxCell id="xfgqFInzrt2F2nNXEhMC-66" value="" style="endArrow=none;dashed=1;html=1;dashPattern=1 3;strokeWidth=2;rounded=0;exitX=1;exitY=1;exitDx=0;exitDy=0;entryX=0;entryY=0.5;entryDx=0;entryDy=0;entryPerimeter=0;" parent="1" source="xfgqFInzrt2F2nNXEhMC-67" target="xfgqFInzrt2F2nNXEhMC-65" edge="1">
          <mxGeometry width="50" height="50" relative="1" as="geometry">
            <mxPoint x="419.5" y="1008.83" as="sourcePoint" />
            <mxPoint x="470" y="973.83" as="targetPoint" />
          </mxGeometry>
        </mxCell>
        <mxCell id="xfgqFInzrt2F2nNXEhMC-70" value="[false]" style="edgeStyle=orthogonalEdgeStyle;rounded=0;orthogonalLoop=1;jettySize=auto;html=1;exitX=0;exitY=0.5;exitDx=0;exitDy=0;entryX=1;entryY=0.5;entryDx=0;entryDy=0;" parent="1" source="xfgqFInzrt2F2nNXEhMC-67" target="xfgqFInzrt2F2nNXEhMC-61" edge="1">
          <mxGeometry relative="1" as="geometry" />
        </mxCell>
        <mxCell id="xfgqFInzrt2F2nNXEhMC-71" value="[true]" style="edgeStyle=orthogonalEdgeStyle;rounded=0;orthogonalLoop=1;jettySize=auto;html=1;exitX=0.5;exitY=1;exitDx=0;exitDy=0;entryX=1;entryY=0.5;entryDx=0;entryDy=0;" parent="1" source="xfgqFInzrt2F2nNXEhMC-67" target="xfgqFInzrt2F2nNXEhMC-63" edge="1">
          <mxGeometry x="0.4502" relative="1" as="geometry">
            <mxPoint as="offset" />
          </mxGeometry>
        </mxCell>
        <mxCell id="xfgqFInzrt2F2nNXEhMC-67" value="" style="rhombus;whiteSpace=wrap;html=1;container=0;" parent="1" vertex="1">
          <mxGeometry x="290" y="928.83" width="40" height="30" as="geometry" />
        </mxCell>
        <mxCell id="-JMtcEVkYMEbGsDYnE0R-3" style="edgeStyle=orthogonalEdgeStyle;rounded=0;orthogonalLoop=1;jettySize=auto;html=1;exitX=1;exitY=0.5;exitDx=0;exitDy=0;entryX=0.3;entryY=0.338;entryDx=0;entryDy=0;entryPerimeter=0;" parent="1" source="xfgqFInzrt2F2nNXEhMC-72" target="4zfpj5_55RrsMOGDuv52-13" edge="1">
          <mxGeometry relative="1" as="geometry">
            <Array as="points">
              <mxPoint x="650" y="1094" />
              <mxPoint x="650" y="610" />
              <mxPoint x="473" y="610" />
            </Array>
          </mxGeometry>
        </mxCell>
        <mxCell id="xfgqFInzrt2F2nNXEhMC-72" value="Rundenzahl++" style="rounded=0;whiteSpace=wrap;html=1;container=0;" parent="1" vertex="1">
          <mxGeometry x="410" y="1073.83" width="90" height="40" as="geometry" />
        </mxCell>
        <mxCell id="xfgqFInzrt2F2nNXEhMC-16" value="" style="endArrow=none;dashed=1;html=1;dashPattern=1 3;strokeWidth=2;rounded=0;entryX=0;entryY=0.5;entryDx=0;entryDy=0;entryPerimeter=0;exitX=1;exitY=0.5;exitDx=0;exitDy=0;" parent="1" source="xfgqFInzrt2F2nNXEhMC-6" target="xfgqFInzrt2F2nNXEhMC-15" edge="1">
          <mxGeometry width="50" height="50" relative="1" as="geometry">
            <mxPoint x="475" y="690.23" as="sourcePoint" />
            <mxPoint x="565" y="590.23" as="targetPoint" />
          </mxGeometry>
        </mxCell>
        <mxCell id="xfgqFInzrt2F2nNXEhMC-45" value="&lt;font style=&quot;font-size: 14px;&quot;&gt;&lt;b&gt;Spielrunde&lt;/b&gt;&lt;/font&gt;" style="text;html=1;strokeColor=none;fillColor=none;align=center;verticalAlign=middle;whiteSpace=wrap;rounded=0;container=0;" parent="1" vertex="1">
          <mxGeometry x="322.026151708808" y="520" width="56.94915254237288" height="44.31818181818181" as="geometry" />
        </mxCell>
        <mxCell id="xfgqFInzrt2F2nNXEhMC-38" value="&lt;font style=&quot;font-size: 12px;&quot;&gt;Farbcode setzen&lt;/font&gt;" style="html=1;shape=mxgraph.infographic.ribbonSimple;notch1=0;notch2=20;align=center;verticalAlign=middle;fontSize=14;fontStyle=0;fillColor=#FFFFFF;whiteSpace=wrap;container=0;" parent="1" vertex="1">
          <mxGeometry x="130.59" y="713.94" width="109.41" height="31.28" as="geometry" />
        </mxCell>
        <mxCell id="xfgqFInzrt2F2nNXEhMC-100" value="" style="edgeStyle=orthogonalEdgeStyle;rounded=0;orthogonalLoop=1;jettySize=auto;html=1;exitX=0;exitY=0;exitDx=65;exitDy=33.89;exitPerimeter=0;entryX=0.5;entryY=0;entryDx=0;entryDy=0;" parent="1" source="xfgqFInzrt2F2nNXEhMC-39" target="6mnyKnMKoBdTDlpZ-iiz-58" edge="1">
          <mxGeometry relative="1" as="geometry" />
        </mxCell>
        <mxCell id="xfgqFInzrt2F2nNXEhMC-39" value="&lt;font style=&quot;font-size: 12px;&quot;&gt;Farbcode raten&lt;/font&gt;" style="html=1;shape=mxgraph.infographic.ribbonSimple;notch1=20;notch2=0;align=center;verticalAlign=middle;fontSize=14;fontStyle=0;flipH=1;fillColor=#FFFFFF;whiteSpace=wrap;container=0;" parent="1" vertex="1">
          <mxGeometry x="390" y="711.33" width="130" height="33.89" as="geometry" />
        </mxCell>
        <mxCell id="xfgqFInzrt2F2nNXEhMC-15" value="Rundenzahl &lt;br&gt;&amp;lt;= 10 ?" style="shape=note2;boundedLbl=1;whiteSpace=wrap;html=1;size=25;verticalAlign=top;align=center;container=0;" parent="1" vertex="1">
          <mxGeometry x="515.0023529411765" y="640.0027272727273" width="82.35294117647058" height="62.56684491978609" as="geometry" />
        </mxCell>
        <mxCell id="xfgqFInzrt2F2nNXEhMC-9" value="Farbcode erraten?" style="shape=note2;boundedLbl=1;whiteSpace=wrap;html=1;size=25;verticalAlign=top;align=center;container=0;" parent="1" vertex="1">
          <mxGeometry x="515.0023529411765" y="763.4702673796792" width="82.35294117647058" height="62.56684491978609" as="geometry" />
        </mxCell>
        <mxCell id="xfgqFInzrt2F2nNXEhMC-81" value="" style="endArrow=none;html=1;rounded=0;exitX=0.002;exitY=0.057;exitDx=0;exitDy=0;exitPerimeter=0;entryX=1;entryY=0.057;entryDx=0;entryDy=0;entryPerimeter=0;" parent="1" source="xfgqFInzrt2F2nNXEhMC-44" target="xfgqFInzrt2F2nNXEhMC-44" edge="1">
          <mxGeometry width="50" height="50" relative="1" as="geometry">
            <mxPoint x="100" y="730" as="sourcePoint" />
            <mxPoint x="150" y="680" as="targetPoint" />
          </mxGeometry>
        </mxCell>
        <mxCell id="xfgqFInzrt2F2nNXEhMC-82" value="" style="endArrow=none;html=1;rounded=0;exitX=0.5;exitY=1;exitDx=0;exitDy=0;" parent="1" source="xfgqFInzrt2F2nNXEhMC-44" edge="1">
          <mxGeometry width="50" height="50" relative="1" as="geometry">
            <mxPoint x="100" y="730" as="sourcePoint" />
            <mxPoint x="350" y="560" as="targetPoint" />
          </mxGeometry>
        </mxCell>
        <mxCell id="xfgqFInzrt2F2nNXEhMC-94" style="edgeStyle=orthogonalEdgeStyle;rounded=0;orthogonalLoop=1;jettySize=auto;html=1;exitX=0;exitY=0.5;exitDx=0;exitDy=0;entryX=1;entryY=0.5;entryDx=0;entryDy=0;" parent="1" source="6mnyKnMKoBdTDlpZ-iiz-45" target="xfgqFInzrt2F2nNXEhMC-92" edge="1">
          <mxGeometry relative="1" as="geometry" />
        </mxCell>
        <mxCell id="6mnyKnMKoBdTDlpZ-iiz-45" value="Spiel [gewonnen]" style="rounded=0;whiteSpace=wrap;html=1;container=0;" parent="1" vertex="1">
          <mxGeometry x="315.5" y="784.62" width="70" height="40" as="geometry" />
        </mxCell>
        <mxCell id="xfgqFInzrt2F2nNXEhMC-95" style="edgeStyle=orthogonalEdgeStyle;rounded=0;orthogonalLoop=1;jettySize=auto;html=1;exitX=0;exitY=0.5;exitDx=0;exitDy=0;entryX=1;entryY=0.5;entryDx=0;entryDy=0;" parent="1" source="6mnyKnMKoBdTDlpZ-iiz-44" target="xfgqFInzrt2F2nNXEhMC-93" edge="1">
          <mxGeometry relative="1" as="geometry" />
        </mxCell>
        <mxCell id="6mnyKnMKoBdTDlpZ-iiz-44" value="&lt;div&gt;Spiel&lt;/div&gt;&lt;div&gt;[verloren]&lt;br&gt;&lt;/div&gt;" style="rounded=0;whiteSpace=wrap;html=1;container=0;" parent="1" vertex="1">
          <mxGeometry x="315.5" y="647.73" width="70" height="40" as="geometry" />
        </mxCell>
        <mxCell id="xfgqFInzrt2F2nNXEhMC-86" value="" style="endArrow=none;html=1;rounded=0;exitX=-0.002;exitY=0.118;exitDx=0;exitDy=0;exitPerimeter=0;entryX=0.998;entryY=0.114;entryDx=0;entryDy=0;entryPerimeter=0;" parent="1" source="xfgqFInzrt2F2nNXEhMC-44" target="xfgqFInzrt2F2nNXEhMC-44" edge="1">
          <mxGeometry width="50" height="50" relative="1" as="geometry">
            <mxPoint x="100" y="730" as="sourcePoint" />
            <mxPoint x="640" y="590" as="targetPoint" />
          </mxGeometry>
        </mxCell>
        <mxCell id="xfgqFInzrt2F2nNXEhMC-87" value="&lt;font style=&quot;font-size: 14px;&quot;&gt;&lt;b&gt;Codemaker&lt;/b&gt;&lt;/font&gt;" style="text;html=1;strokeColor=none;fillColor=none;align=center;verticalAlign=middle;whiteSpace=wrap;rounded=0;" parent="1" vertex="1">
          <mxGeometry x="70.59" y="564.3199999999999" width="60" height="30" as="geometry" />
        </mxCell>
        <mxCell id="xfgqFInzrt2F2nNXEhMC-88" value="&lt;font style=&quot;font-size: 14px;&quot;&gt;&lt;b&gt;Codebreaker&lt;/b&gt;&lt;/font&gt;" style="text;html=1;strokeColor=none;fillColor=none;align=center;verticalAlign=middle;whiteSpace=wrap;rounded=0;" parent="1" vertex="1">
          <mxGeometry x="540" y="564.32" width="60" height="30" as="geometry" />
        </mxCell>
        <mxCell id="xfgqFInzrt2F2nNXEhMC-90" value="" style="html=1;verticalAlign=bottom;endArrow=open;dashed=1;endSize=8;edgeStyle=elbowEdgeStyle;elbow=vertical;curved=0;rounded=0;exitX=1;exitY=0.5;exitDx=0;exitDy=0;exitPerimeter=0;entryX=1;entryY=0.5;entryDx=0;entryDy=0;entryPerimeter=0;" parent="1" source="xfgqFInzrt2F2nNXEhMC-39" edge="1">
          <mxGeometry relative="1" as="geometry">
            <mxPoint x="170" y="789.62" as="sourcePoint" />
            <mxPoint x="240" y="729.5800000000003" as="targetPoint" />
          </mxGeometry>
        </mxCell>
        <mxCell id="xfgqFInzrt2F2nNXEhMC-92" value="" style="shape=sumEllipse;perimeter=ellipsePerimeter;html=1;backgroundOutline=1;" parent="1" vertex="1">
          <mxGeometry x="245.5" y="789.62" width="30" height="30" as="geometry" />
        </mxCell>
        <mxCell id="xfgqFInzrt2F2nNXEhMC-93" value="" style="shape=sumEllipse;perimeter=ellipsePerimeter;html=1;backgroundOutline=1;" parent="1" vertex="1">
          <mxGeometry x="245.5" y="652.73" width="30" height="30" as="geometry" />
        </mxCell>
        <mxCell id="4zfpj5_55RrsMOGDuv52-1" value="" style="html=1;points=[];perimeter=orthogonalPerimeter;fillColor=strokeColor;" vertex="1" parent="1">
          <mxGeometry x="70.59" y="921.33" width="5" height="110" as="geometry" />
        </mxCell>
        <mxCell id="4zfpj5_55RrsMOGDuv52-11" value="" style="html=1;points=[];perimeter=orthogonalPerimeter;fillColor=strokeColor;rotation=90;" vertex="1" parent="1">
          <mxGeometry x="452.5" y="841.33" width="5" height="80" as="geometry" />
        </mxCell>
        <mxCell id="4zfpj5_55RrsMOGDuv52-13" value="" style="html=1;points=[];perimeter=orthogonalPerimeter;fillColor=strokeColor;rotation=90;" vertex="1" parent="1">
          <mxGeometry x="457.5" y="590" width="5" height="80" as="geometry" />
        </mxCell>
        <mxCell id="4zfpj5_55RrsMOGDuv52-15" value="" style="endArrow=classic;html=1;rounded=0;entryX=0.5;entryY=0;entryDx=0;entryDy=0;exitX=-0.1;exitY=0.563;exitDx=0;exitDy=0;exitPerimeter=0;" edge="1" parent="1" source="4zfpj5_55RrsMOGDuv52-13" target="xfgqFInzrt2F2nNXEhMC-6">
          <mxGeometry width="50" height="50" relative="1" as="geometry">
            <mxPoint x="250" y="810" as="sourcePoint" />
            <mxPoint x="300" y="760" as="targetPoint" />
          </mxGeometry>
        </mxCell>
        <mxCell id="4zfpj5_55RrsMOGDuv52-17" value="" style="endArrow=classic;html=1;rounded=0;exitX=-0.318;exitY=0.497;exitDx=0;exitDy=0;exitPerimeter=0;entryX=0.034;entryY=0.75;entryDx=0;entryDy=0;entryPerimeter=0;" edge="1" parent="1" source="4zfpj5_55RrsMOGDuv52-1" target="4zfpj5_55RrsMOGDuv52-11">
          <mxGeometry width="50" height="50" relative="1" as="geometry">
            <mxPoint x="250" y="860" as="sourcePoint" />
            <mxPoint x="300" y="810" as="targetPoint" />
            <Array as="points">
              <mxPoint x="50" y="976" />
              <mxPoint x="50" y="840" />
              <mxPoint x="435" y="840" />
            </Array>
          </mxGeometry>
        </mxCell>
        <mxCell id="4zfpj5_55RrsMOGDuv52-19" value="" style="endArrow=classic;html=1;rounded=0;entryX=0.5;entryY=0;entryDx=0;entryDy=0;exitX=0.034;exitY=0.5;exitDx=0;exitDy=0;exitPerimeter=0;" edge="1" parent="1" source="4zfpj5_55RrsMOGDuv52-11" target="xfgqFInzrt2F2nNXEhMC-55">
          <mxGeometry width="50" height="50" relative="1" as="geometry">
            <mxPoint x="460" y="881" as="sourcePoint" />
            <mxPoint x="300" y="810" as="targetPoint" />
          </mxGeometry>
        </mxCell>
      </root>
    </mxGraphModel>
  </diagram>
</mxfile>
